# xmcd
#
# Track frame offsets:
#	150
#	15005
#	31510
#	50041
#	62122
#	78102
#	96707
#	111112
#	125368
#	139324
#	156054
#	185609
#
# Disc length: 2691 seconds
#
# Revision: 1
# Processed by: cddbd v1.5.2PL0 Copyright (c) Steve Scherf et al.
# Submitted via: audiograbber 1.83.01
#
DISCID=960a810c
DTITLE=Various Artist - CDX 052
DYEAR=1993
DGENRE=Country
TTITLE0=Vern Gosdin - Back When
TTITLE1=Patty Loveless - Blame It On Your Heart
TTITLE2=Tish Hinojosa - Closer Still
TTITLE3=Texas Tornados - Guacamole
TTITLE4=Joe Diffie - Honky Tonk Attitude
TTITLE5=John Michael Montgomery - I Love The Way You Love Me
TTITLE6=Terry McBride and The Ride - Love On The Loose, Heart On The Run
TTITLE7=Celinda Pink - Pack Your Lies And Go
TTITLE8=Travis Tritt - T-R-O-U-B-L-E
TTITLE9=Cleve Francis - Walkin' (Edit Version)
TTITLE10=Brooks and Dunn - Boot Scootin' Boogie (Dance Mix)
TTITLE11=Billy Burnette - I Still Remember (How I Miss You)
EXTD=
EXTT0=
EXTT1=
EXTT2=
EXTT3=
EXTT4=
EXTT5=
EXTT6=
EXTT7=
EXTT8=
EXTT9=
EXTT10=
EXTT11=
PLAYORDER=
